<?xml version="1.0" encoding="UTF-8" standalone="no"?>
<!DOCTYPE svg PUBLIC "-//W3C//DTD SVG 1.1//EN"
 "http://www.w3.org/Graphics/SVG/1.1/DTD/svg11.dtd">
<!-- Generated by graphviz version 14.1.2 (20260124.0452)
 -->
<!-- Title: EvaluationFramework Pages: 1 -->
<svg width="1427pt" height="409pt"
 viewBox="0.00 0.00 1427.00 409.00" xmlns="http://www.w3.org/2000/svg" xmlns:xlink="http://www.w3.org/1999/xlink">
<g id="graph0" class="graph" transform="scale(1 1) rotate(0) translate(4 404.5)">
<title>EvaluationFramework</title>
<polygon fill="white" stroke="none" points="-4,4 -4,-404.5 1423,-404.5 1423,4 -4,4"/>
<g id="clust3" class="cluster">
<title>cluster_accuracy</title>
<polygon fill="none" stroke="black" stroke-dasharray="5,2" points="8,-208 8,-284.5 417,-284.5 417,-208 8,-208"/>
<text xml:space="preserve" text-anchor="middle" x="212.5" y="-267.2" font-family="Times New Roman,serif" font-size="14.00">Accuracy Errors</text>
</g>
<g id="clust5" class="cluster">
<title>cluster_fluency</title>
<polygon fill="none" stroke="black" stroke-dasharray="5,2" points="425,-208 425,-284.5 1017,-284.5 1017,-208 425,-208"/>
<text xml:space="preserve" text-anchor="middle" x="721" y="-267.2" font-family="Times New Roman,serif" font-size="14.00">Fluency Errors</text>
</g>
<g id="clust7" class="cluster">
<title>cluster_terminology</title>
<polygon fill="none" stroke="black" stroke-dasharray="5,2" points="1025,-208 1025,-284.5 1319,-284.5 1319,-208 1025,-208"/>
<text xml:space="preserve" text-anchor="middle" x="1172" y="-267.2" font-family="Times New Roman,serif" font-size="14.00">Terminology Errors</text>
</g>
<g id="clust9" class="cluster">
<title>cluster_style</title>
<polygon fill="none" stroke="black" stroke-dasharray="5,2" points="1327,-208 1327,-284.5 1411,-284.5 1411,-208 1327,-208"/>
<text xml:space="preserve" text-anchor="middle" x="1369" y="-267.2" font-family="Times New Roman,serif" font-size="14.00">Style Errors</text>
</g>
<!-- Input -->
<g id="node1" class="node">
<title>Input</title>
<path fill="none" stroke="black" d="M958.12,-400.5C958.12,-400.5 879.88,-400.5 879.88,-400.5 873.88,-400.5 867.88,-394.5 867.88,-388.5 867.88,-388.5 867.88,-376.5 867.88,-376.5 867.88,-370.5 873.88,-364.5 879.88,-364.5 879.88,-364.5 958.12,-364.5 958.12,-364.5 964.12,-364.5 970.12,-370.5 970.12,-376.5 970.12,-376.5 970.12,-388.5 970.12,-388.5 970.12,-394.5 964.12,-400.5 958.12,-400.5"/>
<text xml:space="preserve" text-anchor="middle" x="919" y="-377.45" font-family="Times New Roman,serif" font-size="14.00">Input Sentences</text>
</g>
<!-- Accuracy -->
<g id="node2" class="node">
<title>Accuracy</title>
<path fill="none" stroke="black" d="M253.88,-328.5C253.88,-328.5 210.12,-328.5 210.12,-328.5 204.12,-328.5 198.12,-322.5 198.12,-316.5 198.12,-316.5 198.12,-304.5 198.12,-304.5 198.12,-298.5 204.12,-292.5 210.12,-292.5 210.12,-292.5 253.88,-292.5 253.88,-292.5 259.88,-292.5 265.88,-298.5 265.88,-304.5 265.88,-304.5 265.88,-316.5 265.88,-316.5 265.88,-322.5 259.88,-328.5 253.88,-328.5"/>
<text xml:space="preserve" text-anchor="middle" x="232" y="-305.45" font-family="Times New Roman,serif" font-size="14.00">Accuracy</text>
</g>
<!-- Input&#45;&gt;Accuracy -->
<g id="edge1" class="edge">
<title>Input&#45;&gt;Accuracy</title>
<path fill="none" stroke="black" d="M867.64,-383C708.15,-383 232,-383 232,-383 232,-383 232,-340.31 232,-340.31"/>
<polygon fill="black" stroke="black" points="235.5,-340.31 232,-330.31 228.5,-340.31 235.5,-340.31"/>
</g>
<!-- Fluency -->
<g id="node3" class="node">
<title>Fluency</title>
<path fill="none" stroke="black" d="M745.75,-328.5C745.75,-328.5 710.25,-328.5 710.25,-328.5 704.25,-328.5 698.25,-322.5 698.25,-316.5 698.25,-316.5 698.25,-304.5 698.25,-304.5 698.25,-298.5 704.25,-292.5 710.25,-292.5 710.25,-292.5 745.75,-292.5 745.75,-292.5 751.75,-292.5 757.75,-298.5 757.75,-304.5 757.75,-304.5 757.75,-316.5 757.75,-316.5 757.75,-322.5 751.75,-328.5 745.75,-328.5"/>
<text xml:space="preserve" text-anchor="middle" x="728" y="-305.45" font-family="Times New Roman,serif" font-size="14.00">Fluency</text>
</g>
<!-- Input&#45;&gt;Fluency -->
<g id="edge2" class="edge">
<title>Input&#45;&gt;Fluency</title>
<path fill="none" stroke="black" d="M873.58,-364.14C873.58,-343.85 873.58,-314 873.58,-314 873.58,-314 769.68,-314 769.68,-314"/>
<polygon fill="black" stroke="black" points="769.68,-310.5 759.68,-314 769.68,-317.5 769.68,-310.5"/>
</g>
<!-- Terminology -->
<g id="node4" class="node">
<title>Terminology</title>
<path fill="none" stroke="black" d="M1141.25,-328.5C1141.25,-328.5 1078.75,-328.5 1078.75,-328.5 1072.75,-328.5 1066.75,-322.5 1066.75,-316.5 1066.75,-316.5 1066.75,-304.5 1066.75,-304.5 1066.75,-298.5 1072.75,-292.5 1078.75,-292.5 1078.75,-292.5 1141.25,-292.5 1141.25,-292.5 1147.25,-292.5 1153.25,-298.5 1153.25,-304.5 1153.25,-304.5 1153.25,-316.5 1153.25,-316.5 1153.25,-322.5 1147.25,-328.5 1141.25,-328.5"/>
<text xml:space="preserve" text-anchor="middle" x="1110" y="-305.45" font-family="Times New Roman,serif" font-size="14.00">Terminology</text>
</g>
<!-- Input&#45;&gt;Terminology -->
<g id="edge3" class="edge">
<title>Input&#45;&gt;Terminology</title>
<path fill="none" stroke="black" d="M941.75,-364.05C941.75,-345.93 941.75,-321 941.75,-321 941.75,-321 1055.16,-321 1055.16,-321"/>
<polygon fill="black" stroke="black" points="1055.16,-324.5 1065.16,-321 1055.16,-317.5 1055.16,-324.5"/>
</g>
<!-- Style -->
<g id="node5" class="node">
<title>Style</title>
<path fill="none" stroke="black" d="M1298,-328.5C1298,-328.5 1268,-328.5 1268,-328.5 1262,-328.5 1256,-322.5 1256,-316.5 1256,-316.5 1256,-304.5 1256,-304.5 1256,-298.5 1262,-292.5 1268,-292.5 1268,-292.5 1298,-292.5 1298,-292.5 1304,-292.5 1310,-298.5 1310,-304.5 1310,-304.5 1310,-316.5 1310,-316.5 1310,-322.5 1304,-328.5 1298,-328.5"/>
<text xml:space="preserve" text-anchor="middle" x="1283" y="-305.45" font-family="Times New Roman,serif" font-size="14.00">Style</text>
</g>
<!-- Input&#45;&gt;Style -->
<g id="edge4" class="edge">
<title>Input&#45;&gt;Style</title>
<path fill="none" stroke="black" d="M970.38,-383C1070.72,-383 1283,-383 1283,-383 1283,-383 1283,-340.31 1283,-340.31"/>
<polygon fill="black" stroke="black" points="1286.5,-340.31 1283,-330.31 1279.5,-340.31 1286.5,-340.31"/>
</g>
<!-- Addition -->
<g id="node6" class="node">
<title>Addition</title>
<path fill="none" stroke="black" d="M68,-252C68,-252 28,-252 28,-252 22,-252 16,-246 16,-240 16,-240 16,-228 16,-228 16,-222 22,-216 28,-216 28,-216 68,-216 68,-216 74,-216 80,-222 80,-228 80,-228 80,-240 80,-240 80,-246 74,-252 68,-252"/>
<text xml:space="preserve" text-anchor="middle" x="48" y="-228.95" font-family="Times New Roman,serif" font-size="14.00">Addition</text>
</g>
<!-- Accuracy&#45;&gt;Addition -->
<g id="edge5" class="edge">
<title>Accuracy&#45;&gt;Addition</title>
<path fill="none" stroke="black" d="M197.82,-317C144.61,-317 48,-317 48,-317 48,-317 48,-263.93 48,-263.93"/>
<polygon fill="black" stroke="black" points="51.5,-263.93 48,-253.93 44.5,-263.93 51.5,-263.93"/>
</g>
<!-- Omission -->
<g id="node7" class="node">
<title>Omission</title>
<path fill="none" stroke="black" d="M154.25,-252C154.25,-252 109.75,-252 109.75,-252 103.75,-252 97.75,-246 97.75,-240 97.75,-240 97.75,-228 97.75,-228 97.75,-222 103.75,-216 109.75,-216 109.75,-216 154.25,-216 154.25,-216 160.25,-216 166.25,-222 166.25,-228 166.25,-228 166.25,-240 166.25,-240 166.25,-246 160.25,-252 154.25,-252"/>
<text xml:space="preserve" text-anchor="middle" x="132" y="-228.95" font-family="Times New Roman,serif" font-size="14.00">Omission</text>
</g>
<!-- Accuracy&#45;&gt;Omission -->
<g id="edge6" class="edge">
<title>Accuracy&#45;&gt;Omission</title>
<path fill="none" stroke="black" d="M197.87,-305C168.9,-305 132,-305 132,-305 132,-305 132,-263.8 132,-263.8"/>
<polygon fill="black" stroke="black" points="135.5,-263.8 132,-253.8 128.5,-263.8 135.5,-263.8"/>
</g>
<!-- Mistranslation -->
<g id="node8" class="node">
<title>Mistranslation</title>
<path fill="none" stroke="black" d="M267.38,-252C267.38,-252 196.62,-252 196.62,-252 190.62,-252 184.62,-246 184.62,-240 184.62,-240 184.62,-228 184.62,-228 184.62,-222 190.62,-216 196.62,-216 196.62,-216 267.38,-216 267.38,-216 273.38,-216 279.38,-222 279.38,-228 279.38,-228 279.38,-240 279.38,-240 279.38,-246 273.38,-252 267.38,-252"/>
<text xml:space="preserve" text-anchor="middle" x="232" y="-228.95" font-family="Times New Roman,serif" font-size="14.00">Mistranslation</text>
</g>
<!-- Accuracy&#45;&gt;Mistranslation -->
<g id="edge7" class="edge">
<title>Accuracy&#45;&gt;Mistranslation</title>
<path fill="none" stroke="black" d="M232,-292.37C232,-292.37 232,-263.78 232,-263.78"/>
<polygon fill="black" stroke="black" points="235.5,-263.78 232,-253.78 228.5,-263.78 235.5,-263.78"/>
</g>
<!-- UntranslatedText -->
<g id="node9" class="node">
<title>UntranslatedText</title>
<path fill="none" stroke="black" d="M397,-252C397,-252 309,-252 309,-252 303,-252 297,-246 297,-240 297,-240 297,-228 297,-228 297,-222 303,-216 309,-216 309,-216 397,-216 397,-216 403,-216 409,-222 409,-228 409,-228 409,-240 409,-240 409,-246 403,-252 397,-252"/>
<text xml:space="preserve" text-anchor="middle" x="353" y="-228.95" font-family="Times New Roman,serif" font-size="14.00">Untranslated Text</text>
</g>
<!-- Accuracy&#45;&gt;UntranslatedText -->
<g id="edge8" class="edge">
<title>Accuracy&#45;&gt;UntranslatedText</title>
<path fill="none" stroke="black" d="M266.35,-307C302.12,-307 353,-307 353,-307 353,-307 353,-263.93 353,-263.93"/>
<polygon fill="black" stroke="black" points="356.5,-263.93 353,-253.93 349.5,-263.93 356.5,-263.93"/>
</g>
<!-- Punctuation -->
<g id="node10" class="node">
<title>Punctuation</title>
<path fill="none" stroke="black" d="M501.25,-252C501.25,-252 444.75,-252 444.75,-252 438.75,-252 432.75,-246 432.75,-240 432.75,-240 432.75,-228 432.75,-228 432.75,-222 438.75,-216 444.75,-216 444.75,-216 501.25,-216 501.25,-216 507.25,-216 513.25,-222 513.25,-228 513.25,-228 513.25,-240 513.25,-240 513.25,-246 507.25,-252 501.25,-252"/>
<text xml:space="preserve" text-anchor="middle" x="473" y="-228.95" font-family="Times New Roman,serif" font-size="14.00">Punctuation</text>
</g>
<!-- Fluency&#45;&gt;Punctuation -->
<g id="edge9" class="edge">
<title>Fluency&#45;&gt;Punctuation</title>
<path fill="none" stroke="black" d="M698,-321C630.59,-321 473,-321 473,-321 473,-321 473,-263.96 473,-263.96"/>
<polygon fill="black" stroke="black" points="476.5,-263.96 473,-253.96 469.5,-263.96 476.5,-263.96"/>
</g>
<!-- Spelling -->
<g id="node11" class="node">
<title>Spelling</title>
<path fill="none" stroke="black" d="M580.5,-252C580.5,-252 543.5,-252 543.5,-252 537.5,-252 531.5,-246 531.5,-240 531.5,-240 531.5,-228 531.5,-228 531.5,-222 537.5,-216 543.5,-216 543.5,-216 580.5,-216 580.5,-216 586.5,-216 592.5,-222 592.5,-228 592.5,-228 592.5,-240 592.5,-240 592.5,-246 586.5,-252 580.5,-252"/>
<text xml:space="preserve" text-anchor="middle" x="562" y="-228.95" font-family="Times New Roman,serif" font-size="14.00">Spelling</text>
</g>
<!-- Fluency&#45;&gt;Spelling -->
<g id="edge10" class="edge">
<title>Fluency&#45;&gt;Spelling</title>
<path fill="none" stroke="black" d="M697.94,-314C650.1,-314 562,-314 562,-314 562,-314 562,-263.67 562,-263.67"/>
<polygon fill="black" stroke="black" points="565.5,-263.67 562,-253.67 558.5,-263.67 565.5,-263.67"/>
</g>
<!-- Grammar -->
<g id="node12" class="node">
<title>Grammar</title>
<path fill="none" stroke="black" d="M667.62,-252C667.62,-252 622.38,-252 622.38,-252 616.38,-252 610.38,-246 610.38,-240 610.38,-240 610.38,-228 610.38,-228 610.38,-222 616.38,-216 622.38,-216 622.38,-216 667.62,-216 667.62,-216 673.62,-216 679.62,-222 679.62,-228 679.62,-228 679.62,-240 679.62,-240 679.62,-246 673.62,-252 667.62,-252"/>
<text xml:space="preserve" text-anchor="middle" x="645" y="-228.95" font-family="Times New Roman,serif" font-size="14.00">Grammar</text>
</g>
<!-- Fluency&#45;&gt;Grammar -->
<g id="edge11" class="edge">
<title>Fluency&#45;&gt;Grammar</title>
<path fill="none" stroke="black" d="M698.04,-300C674.26,-300 645,-300 645,-300 645,-300 645,-263.9 645,-263.9"/>
<polygon fill="black" stroke="black" points="648.5,-263.9 645,-253.9 641.5,-263.9 648.5,-263.9"/>
</g>
<!-- Register -->
<g id="node13" class="node">
<title>Register</title>
<path fill="none" stroke="black" d="M746.5,-252C746.5,-252 709.5,-252 709.5,-252 703.5,-252 697.5,-246 697.5,-240 697.5,-240 697.5,-228 697.5,-228 697.5,-222 703.5,-216 709.5,-216 709.5,-216 746.5,-216 746.5,-216 752.5,-216 758.5,-222 758.5,-228 758.5,-228 758.5,-240 758.5,-240 758.5,-246 752.5,-252 746.5,-252"/>
<text xml:space="preserve" text-anchor="middle" x="728" y="-228.95" font-family="Times New Roman,serif" font-size="14.00">Register</text>
</g>
<!-- Fluency&#45;&gt;Register -->
<g id="edge12" class="edge">
<title>Fluency&#45;&gt;Register</title>
<path fill="none" stroke="black" d="M728,-292.37C728,-292.37 728,-263.78 728,-263.78"/>
<polygon fill="black" stroke="black" points="731.5,-263.78 728,-253.78 724.5,-263.78 731.5,-263.78"/>
</g>
<!-- Inconsistency -->
<g id="node14" class="node">
<title>Inconsistency</title>
<path fill="none" stroke="black" d="M855.12,-252C855.12,-252 788.88,-252 788.88,-252 782.88,-252 776.88,-246 776.88,-240 776.88,-240 776.88,-228 776.88,-228 776.88,-222 782.88,-216 788.88,-216 788.88,-216 855.12,-216 855.12,-216 861.12,-216 867.12,-222 867.12,-228 867.12,-228 867.12,-240 867.12,-240 867.12,-246 861.12,-252 855.12,-252"/>
<text xml:space="preserve" text-anchor="middle" x="822" y="-228.95" font-family="Times New Roman,serif" font-size="14.00">Inconsistency</text>
</g>
<!-- Fluency&#45;&gt;Inconsistency -->
<g id="edge13" class="edge">
<title>Fluency&#45;&gt;Inconsistency</title>
<path fill="none" stroke="black" d="M758,-300C785.51,-300 822,-300 822,-300 822,-300 822,-263.9 822,-263.9"/>
<polygon fill="black" stroke="black" points="825.5,-263.9 822,-253.9 818.5,-263.9 825.5,-263.9"/>
</g>
<!-- CharacterEncoding -->
<g id="node15" class="node">
<title>CharacterEncoding</title>
<path fill="none" stroke="black" d="M997,-252C997,-252 897,-252 897,-252 891,-252 885,-246 885,-240 885,-240 885,-228 885,-228 885,-222 891,-216 897,-216 897,-216 997,-216 997,-216 1003,-216 1009,-222 1009,-228 1009,-228 1009,-240 1009,-240 1009,-246 1003,-252 997,-252"/>
<text xml:space="preserve" text-anchor="middle" x="947" y="-228.95" font-family="Times New Roman,serif" font-size="14.00">Character Encoding</text>
</g>
<!-- Fluency&#45;&gt;CharacterEncoding -->
<g id="edge14" class="edge">
<title>Fluency&#45;&gt;CharacterEncoding</title>
<path fill="none" stroke="black" d="M758.2,-307C810.72,-307 913.38,-307 913.38,-307 913.38,-307 913.38,-263.93 913.38,-263.93"/>
<polygon fill="black" stroke="black" points="916.88,-263.93 913.38,-253.93 909.88,-263.93 916.88,-263.93"/>
</g>
<!-- InappropriateContext -->
<g id="node16" class="node">
<title>InappropriateContext</title>
<path fill="none" stroke="black" d="M1175.38,-252C1175.38,-252 1044.62,-252 1044.62,-252 1038.62,-252 1032.62,-246 1032.62,-240 1032.62,-240 1032.62,-228 1032.62,-228 1032.62,-222 1038.62,-216 1044.62,-216 1044.62,-216 1175.38,-216 1175.38,-216 1181.38,-216 1187.38,-222 1187.38,-228 1187.38,-228 1187.38,-240 1187.38,-240 1187.38,-246 1181.38,-252 1175.38,-252"/>
<text xml:space="preserve" text-anchor="middle" x="1110" y="-228.95" font-family="Times New Roman,serif" font-size="14.00">Inappropriate for Context</text>
</g>
<!-- Terminology&#45;&gt;InappropriateContext -->
<g id="edge15" class="edge">
<title>Terminology&#45;&gt;InappropriateContext</title>
<path fill="none" stroke="black" d="M1110,-292.37C1110,-292.37 1110,-263.78 1110,-263.78"/>
<polygon fill="black" stroke="black" points="1113.5,-263.78 1110,-253.78 1106.5,-263.78 1113.5,-263.78"/>
</g>
<!-- InconsistentUse -->
<g id="node17" class="node">
<title>InconsistentUse</title>
<path fill="none" stroke="black" d="M1299,-252C1299,-252 1217,-252 1217,-252 1211,-252 1205,-246 1205,-240 1205,-240 1205,-228 1205,-228 1205,-222 1211,-216 1217,-216 1217,-216 1299,-216 1299,-216 1305,-216 1311,-222 1311,-228 1311,-228 1311,-240 1311,-240 1311,-246 1305,-252 1299,-252"/>
<text xml:space="preserve" text-anchor="middle" x="1258" y="-228.95" font-family="Times New Roman,serif" font-size="14.00">Inconsistent Use</text>
</g>
<!-- Terminology&#45;&gt;InconsistentUse -->
<g id="edge16" class="edge">
<title>Terminology&#45;&gt;InconsistentUse</title>
<path fill="none" stroke="black" d="M1153.5,-311C1188.02,-311 1230.5,-311 1230.5,-311 1230.5,-311 1230.5,-263.76 1230.5,-263.76"/>
<polygon fill="black" stroke="black" points="1234,-263.76 1230.5,-253.76 1227,-263.76 1234,-263.76"/>
</g>
<!-- Awkward -->
<g id="node18" class="node">
<title>Awkward</title>
<path fill="none" stroke="black" d="M1391.25,-252C1391.25,-252 1346.75,-252 1346.75,-252 1340.75,-252 1334.75,-246 1334.75,-240 1334.75,-240 1334.75,-228 1334.75,-228 1334.75,-222 1340.75,-216 1346.75,-216 1346.75,-216 1391.25,-216 1391.25,-216 1397.25,-216 1403.25,-222 1403.25,-228 1403.25,-228 1403.25,-240 1403.25,-240 1403.25,-246 1397.25,-252 1391.25,-252"/>
<text xml:space="preserve" text-anchor="middle" x="1369" y="-228.95" font-family="Times New Roman,serif" font-size="14.00">Awkward</text>
</g>
<!-- Style&#45;&gt;Awkward -->
<g id="edge17" class="edge">
<title>Style&#45;&gt;Awkward</title>
<path fill="none" stroke="black" d="M1310.21,-311C1335.41,-311 1369,-311 1369,-311 1369,-311 1369,-263.76 1369,-263.76"/>
<polygon fill="black" stroke="black" points="1372.5,-263.76 1369,-253.76 1365.5,-263.76 1372.5,-263.76"/>
</g>
<!-- VerifyAccuracy -->
<g id="node19" class="node">
<title>VerifyAccuracy</title>
<path fill="none" stroke="black" d="M277.12,-180C277.12,-180 186.88,-180 186.88,-180 180.88,-180 174.88,-174 174.88,-168 174.88,-168 174.88,-156 174.88,-156 174.88,-150 180.88,-144 186.88,-144 186.88,-144 277.12,-144 277.12,-144 283.12,-144 289.12,-150 289.12,-156 289.12,-156 289.12,-168 289.12,-168 289.12,-174 283.12,-180 277.12,-180"/>
<text xml:space="preserve" text-anchor="middle" x="232" y="-156.95" font-family="Times New Roman,serif" font-size="14.00">Stage 3: Verifying</text>
</g>
<!-- Addition&#45;&gt;VerifyAccuracy -->
<g id="edge18" class="edge">
<title>Addition&#45;&gt;VerifyAccuracy</title>
<path fill="none" stroke="black" d="M48,-215.83C48,-194.5 48,-162 48,-162 48,-162 163.02,-162 163.02,-162"/>
<polygon fill="black" stroke="black" points="163.02,-165.5 173.02,-162 163.02,-158.5 163.02,-165.5"/>
</g>
<!-- Omission&#45;&gt;VerifyAccuracy -->
<g id="edge19" class="edge">
<title>Omission&#45;&gt;VerifyAccuracy</title>
<path fill="none" stroke="black" d="M166.7,-234C174.11,-234 179.75,-234 179.75,-234 179.75,-234 179.75,-191.68 179.75,-191.68"/>
<polygon fill="black" stroke="black" points="183.25,-191.68 179.75,-181.68 176.25,-191.68 183.25,-191.68"/>
</g>
<!-- Mistranslation&#45;&gt;VerifyAccuracy -->
<g id="edge20" class="edge">
<title>Mistranslation&#45;&gt;VerifyAccuracy</title>
<path fill="none" stroke="black" d="M232,-215.83C232,-215.83 232,-191.93 232,-191.93"/>
<polygon fill="black" stroke="black" points="235.5,-191.93 232,-181.93 228.5,-191.93 235.5,-191.93"/>
</g>
<!-- UntranslatedText&#45;&gt;VerifyAccuracy -->
<g id="edge21" class="edge">
<title>UntranslatedText&#45;&gt;VerifyAccuracy</title>
<path fill="none" stroke="black" d="M296.54,-234C289.24,-234 284.25,-234 284.25,-234 284.25,-234 284.25,-191.68 284.25,-191.68"/>
<polygon fill="black" stroke="black" points="287.75,-191.68 284.25,-181.68 280.75,-191.68 287.75,-191.68"/>
</g>
<!-- VerifyFluency -->
<g id="node20" class="node">
<title>VerifyFluency</title>
<path fill="none" stroke="black" d="M773.12,-180C773.12,-180 682.88,-180 682.88,-180 676.88,-180 670.88,-174 670.88,-168 670.88,-168 670.88,-156 670.88,-156 670.88,-150 676.88,-144 682.88,-144 682.88,-144 773.12,-144 773.12,-144 779.12,-144 785.12,-150 785.12,-156 785.12,-156 785.12,-168 785.12,-168 785.12,-174 779.12,-180 773.12,-180"/>
<text xml:space="preserve" text-anchor="middle" x="728" y="-156.95" font-family="Times New Roman,serif" font-size="14.00">Stage 3: Verifying</text>
</g>
<!-- Punctuation&#45;&gt;VerifyFluency -->
<g id="edge22" class="edge">
<title>Punctuation&#45;&gt;VerifyFluency</title>
<path fill="none" stroke="black" d="M473,-215.52C473,-192.45 473,-156 473,-156 473,-156 658.94,-156 658.94,-156"/>
<polygon fill="black" stroke="black" points="658.94,-159.5 668.94,-156 658.94,-152.5 658.94,-159.5"/>
</g>
<!-- Spelling&#45;&gt;VerifyFluency -->
<g id="edge23" class="edge">
<title>Spelling&#45;&gt;VerifyFluency</title>
<path fill="none" stroke="black" d="M562,-215.62C562,-196.09 562,-168 562,-168 562,-168 658.89,-168 658.89,-168"/>
<polygon fill="black" stroke="black" points="658.89,-171.5 668.89,-168 658.89,-164.5 658.89,-171.5"/>
</g>
<!-- Grammar&#45;&gt;VerifyFluency -->
<g id="edge24" class="edge">
<title>Grammar&#45;&gt;VerifyFluency</title>
<path fill="none" stroke="black" d="M675.25,-215.83C675.25,-215.83 675.25,-191.93 675.25,-191.93"/>
<polygon fill="black" stroke="black" points="678.75,-191.93 675.25,-181.93 671.75,-191.93 678.75,-191.93"/>
</g>
<!-- Register&#45;&gt;VerifyFluency -->
<g id="edge25" class="edge">
<title>Register&#45;&gt;VerifyFluency</title>
<path fill="none" stroke="black" d="M728,-215.83C728,-215.83 728,-191.93 728,-191.93"/>
<polygon fill="black" stroke="black" points="731.5,-191.93 728,-181.93 724.5,-191.93 731.5,-191.93"/>
</g>
<!-- Inconsistency&#45;&gt;VerifyFluency -->
<g id="edge26" class="edge">
<title>Inconsistency&#45;&gt;VerifyFluency</title>
<path fill="none" stroke="black" d="M781,-215.83C781,-215.83 781,-191.93 781,-191.93"/>
<polygon fill="black" stroke="black" points="784.5,-191.93 781,-181.93 777.5,-191.93 784.5,-191.93"/>
</g>
<!-- CharacterEncoding&#45;&gt;VerifyFluency -->
<g id="edge27" class="edge">
<title>CharacterEncoding&#45;&gt;VerifyFluency</title>
<path fill="none" stroke="black" d="M947,-215.83C947,-194.5 947,-162 947,-162 947,-162 797.05,-162 797.05,-162"/>
<polygon fill="black" stroke="black" points="797.05,-158.5 787.05,-162 797.05,-165.5 797.05,-158.5"/>
</g>
<!-- VerifyTerminology -->
<g id="node21" class="node">
<title>VerifyTerminology</title>
<path fill="none" stroke="black" d="M1155.12,-180C1155.12,-180 1064.88,-180 1064.88,-180 1058.88,-180 1052.88,-174 1052.88,-168 1052.88,-168 1052.88,-156 1052.88,-156 1052.88,-150 1058.88,-144 1064.88,-144 1064.88,-144 1155.12,-144 1155.12,-144 1161.12,-144 1167.12,-150 1167.12,-156 1167.12,-156 1167.12,-168 1167.12,-168 1167.12,-174 1161.12,-180 1155.12,-180"/>
<text xml:space="preserve" text-anchor="middle" x="1110" y="-156.95" font-family="Times New Roman,serif" font-size="14.00">Stage 3: Verifying</text>
</g>
<!-- InappropriateContext&#45;&gt;VerifyTerminology -->
<g id="edge28" class="edge">
<title>InappropriateContext&#45;&gt;VerifyTerminology</title>
<path fill="none" stroke="black" d="M1110,-215.83C1110,-215.83 1110,-191.93 1110,-191.93"/>
<polygon fill="black" stroke="black" points="1113.5,-191.93 1110,-181.93 1106.5,-191.93 1113.5,-191.93"/>
</g>
<!-- InconsistentUse&#45;&gt;VerifyTerminology -->
<g id="edge29" class="edge">
<title>InconsistentUse&#45;&gt;VerifyTerminology</title>
<path fill="none" stroke="black" d="M1220.94,-215.83C1220.94,-194.5 1220.94,-162 1220.94,-162 1220.94,-162 1178.93,-162 1178.93,-162"/>
<polygon fill="black" stroke="black" points="1178.93,-158.5 1168.93,-162 1178.93,-165.5 1178.93,-158.5"/>
</g>
<!-- VerifyStyle -->
<g id="node22" class="node">
<title>VerifyStyle</title>
<path fill="none" stroke="black" d="M1339.12,-180C1339.12,-180 1248.88,-180 1248.88,-180 1242.88,-180 1236.88,-174 1236.88,-168 1236.88,-168 1236.88,-156 1236.88,-156 1236.88,-150 1242.88,-144 1248.88,-144 1248.88,-144 1339.12,-144 1339.12,-144 1345.12,-144 1351.12,-150 1351.12,-156 1351.12,-156 1351.12,-168 1351.12,-168 1351.12,-174 1345.12,-180 1339.12,-180"/>
<text xml:space="preserve" text-anchor="middle" x="1294" y="-156.95" font-family="Times New Roman,serif" font-size="14.00">Stage 3: Verifying</text>
</g>
<!-- Awkward&#45;&gt;VerifyStyle -->
<g id="edge30" class="edge">
<title>Awkward&#45;&gt;VerifyStyle</title>
<path fill="none" stroke="black" d="M1342.94,-215.83C1342.94,-215.83 1342.94,-191.93 1342.94,-191.93"/>
<polygon fill="black" stroke="black" points="1346.44,-191.93 1342.94,-181.93 1339.44,-191.93 1346.44,-191.93"/>
</g>
<!-- CheckMissing -->
<g id="node23" class="node">
<title>CheckMissing</title>
<path fill="none" stroke="black" d="M907.07,-106.71C907.07,-106.71 764.21,-91.29 764.21,-91.29 758.25,-90.64 758.25,-89.36 764.21,-88.71 764.21,-88.71 907.07,-73.29 907.07,-73.29 913.03,-72.64 924.97,-72.64 930.93,-73.29 930.93,-73.29 1073.79,-88.71 1073.79,-88.71 1079.75,-89.36 1079.75,-90.64 1073.79,-91.29 1073.79,-91.29 930.93,-106.71 930.93,-106.71 924.97,-107.36 913.03,-107.36 907.07,-106.71"/>
<text xml:space="preserve" text-anchor="middle" x="919" y="-84.95" font-family="Times New Roman,serif" font-size="14.00">Checking for Missing Errors</text>
</g>
<!-- VerifyAccuracy&#45;&gt;CheckMissing -->
<g id="edge31" class="edge">
<title>VerifyAccuracy&#45;&gt;CheckMissing</title>
<path fill="none" stroke="black" d="M232,-143.83C232,-122.5 232,-90 232,-90 232,-90 736.34,-90 736.34,-90"/>
<polygon fill="black" stroke="black" points="736.34,-93.5 746.34,-90 736.34,-86.5 736.34,-93.5"/>
</g>
<!-- VerifyFluency&#45;&gt;CheckMissing -->
<g id="edge32" class="edge">
<title>VerifyFluency&#45;&gt;CheckMissing</title>
<path fill="none" stroke="black" d="M768.7,-143.83C768.7,-143.83 768.7,-103.73 768.7,-103.73"/>
<polygon fill="black" stroke="black" points="772.2,-103.73 768.7,-93.73 765.2,-103.73 772.2,-103.73"/>
</g>
<!-- VerifyTerminology&#45;&gt;CheckMissing -->
<g id="edge33" class="edge">
<title>VerifyTerminology&#45;&gt;CheckMissing</title>
<path fill="none" stroke="black" d="M1069.3,-143.83C1069.3,-143.83 1069.3,-103.73 1069.3,-103.73"/>
<polygon fill="black" stroke="black" points="1072.8,-103.73 1069.3,-93.73 1065.8,-103.73 1072.8,-103.73"/>
</g>
<!-- VerifyStyle&#45;&gt;CheckMissing -->
<g id="edge34" class="edge">
<title>VerifyStyle&#45;&gt;CheckMissing</title>
<path fill="none" stroke="black" d="M1294,-143.83C1294,-122.5 1294,-90 1294,-90 1294,-90 1101.83,-90 1101.83,-90"/>
<polygon fill="black" stroke="black" points="1101.83,-86.5 1091.83,-90 1101.83,-93.5 1101.83,-86.5"/>
</g>
<!-- CheckMissing&#45;&gt;Input -->
<g id="edge35" class="edge">
<title>CheckMissing&#45;&gt;Input</title>
<path fill="none" stroke="black" d="M879.29,-104.11C879.29,-104.11 879.29,-352.67 879.29,-352.67"/>
<polygon fill="black" stroke="black" points="875.79,-352.67 879.29,-362.67 882.79,-352.67 875.79,-352.67"/>
<text xml:space="preserve" text-anchor="middle" x="874.23" y="-215.09" font-family="Times New Roman,serif" font-size="14.00">Yes</text>
</g>
<!-- FinalAggregation -->
<g id="node24" class="node">
<title>FinalAggregation</title>
<path fill="none" stroke="black" d="M988.12,-36C988.12,-36 849.88,-36 849.88,-36 843.88,-36 837.88,-30 837.88,-24 837.88,-24 837.88,-12 837.88,-12 837.88,-6 843.88,0 849.88,0 849.88,0 988.12,0 988.12,0 994.12,0 1000.12,-6 1000.12,-12 1000.12,-12 1000.12,-24 1000.12,-24 1000.12,-30 994.12,-36 988.12,-36"/>
<text xml:space="preserve" text-anchor="middle" x="919" y="-12.95" font-family="Times New Roman,serif" font-size="14.00">Stage 4: Final Aggregation</text>
</g>
<!-- CheckMissing&#45;&gt;FinalAggregation -->
<g id="edge36" class="edge">
<title>CheckMissing&#45;&gt;FinalAggregation</title>
<path fill="none" stroke="black" d="M919,-71.83C919,-71.83 919,-47.93 919,-47.93"/>
<polygon fill="black" stroke="black" points="922.5,-47.93 919,-37.93 915.5,-47.93 922.5,-47.93"/>
<text xml:space="preserve" text-anchor="middle" x="910.75" y="-46.58" font-family="Times New Roman,serif" font-size="14.00">No</text>
</g>
</g>
</svg>
